<svg xmlns="http://www.w3.org/2000/svg" viewBox="0 0 14.88 23.91"><g id="Layer_2" data-name="Layer 2"><g id="Layer_1-2" data-name="Layer 1"><path d="M2.92,11.71a.29.29,0,0,0,.16,0,.39.39,0,0,0,.36-.24l.2-.45a.4.4,0,0,0-.74-.32l-.19.45A.39.39,0,0,0,2.92,11.71Z"/><path d="M11.3,9.23c-.26-.57-.7-1.53-.73-1.63a3.52,3.52,0,0,1,.32-.95,5.22,5.22,0,0,0,.57-2.14,4.88,4.88,0,0,0-.37-2.15,1.12,1.12,0,0,0-1-.63H10V.4a.4.4,0,1,0-.8,0V1.8a4.61,4.61,0,0,0-1.74.7H7.4A4.45,4.45,0,0,0,5.66,1.8V.4a.4.4,0,0,0-.8,0V1.73H4.81a1.15,1.15,0,0,0-1,.63,5,5,0,0,0-.37,2.15A5.34,5.34,0,0,0,4,6.65a4.68,4.68,0,0,1,.33.86,16.19,16.19,0,0,1-.72,1.7.4.4,0,0,0,.2.53.39.39,0,0,0,.53-.19C4.65,8.81,4.86,8.33,5,8H9.88c.13.34.36.86.69,1.58,1.23,2.69,3.51,7.7,3.51,12.32a.35.35,0,0,1-.13.27c-1,.85-1.55.95-1.71.95a1.91,1.91,0,0,1-1.05-.51,3,3,0,0,0-.39-.27.4.4,0,0,0-.42,0c-.1.06-.24.17-.37.27a1.84,1.84,0,0,1-1,.51,1.82,1.82,0,0,1-1-.51c-.1-.08-.24-.19-.35-.26a.39.39,0,0,0-.44,0c-.11.07-.25.18-.35.26a1.82,1.82,0,0,1-1,.51,1.92,1.92,0,0,1-1-.53,3.69,3.69,0,0,0-.34-.25.4.4,0,0,0-.42,0,3.33,3.33,0,0,0-.4.28,1.85,1.85,0,0,1-1,.5,3.62,3.62,0,0,1-1.74-.95.35.35,0,0,1-.13-.27,27.11,27.11,0,0,1,2-8.93.39.39,0,0,0-.23-.51.4.4,0,0,0-.52.23A27.89,27.89,0,0,0,0,21.89a1.14,1.14,0,0,0,.43.89,4.14,4.14,0,0,0,2.23,1.13,2.54,2.54,0,0,0,1.53-.69l.09-.06.1.07a2.46,2.46,0,0,0,1.5.68,2.43,2.43,0,0,0,1.48-.68l.08-.06.08.06A2.38,2.38,0,0,0,9,23.91a2.53,2.53,0,0,0,1.53-.7l.07-.05.11.08a2.53,2.53,0,0,0,1.53.67,4.13,4.13,0,0,0,2.21-1.13,1.14,1.14,0,0,0,.43-.89C14.88,17.09,12.55,12,11.3,9.23ZM4.21,4.51A4.12,4.12,0,0,1,4.5,2.72a.34.34,0,0,1,.31-.19,3.76,3.76,0,0,1,2,.56l0,.08a.56.56,0,0,1-.41.38.4.4,0,0,0,0,.8h.05a1.35,1.35,0,0,0,1-.67,1.34,1.34,0,0,0,1,.67A.4.4,0,0,0,8.83,4a.4.4,0,0,0-.34-.45.55.55,0,0,1-.41-.38l0-.08a3.76,3.76,0,0,1,2-.56.34.34,0,0,1,.31.19,4.28,4.28,0,0,1,.28,1.79,4.51,4.51,0,0,1-.5,1.82,4.94,4.94,0,0,0-.31.86H5a6.13,6.13,0,0,0-.32-.86A4.52,4.52,0,0,1,4.21,4.51Z"/><circle cx="7.44" cy="5.21" r="0.24"/><circle cx="7.44" cy="6.32" r="0.24"/><path d="M12.19,20.76h.09a.4.4,0,0,0,.29-.49L10,9.7a.4.4,0,0,0-.77.19L11.8,20.45A.39.39,0,0,0,12.19,20.76Z"/><path d="M5.41,9.41a.39.39,0,0,0-.48.29L2.31,20.26a.4.4,0,0,0,.29.49h.1a.38.38,0,0,0,.38-.31L5.71,9.89A.4.4,0,0,0,5.41,9.41Z"/><path d="M5.21,20.42a.38.38,0,0,0,.4.38A.43.43,0,0,0,6,20.37L7.08,9.87a.4.4,0,1,0-.8-.08l-1,10.46S5.21,20.39,5.21,20.42Z"/><path d="M8.16,9.43a.41.41,0,0,0-.36.44L8.87,20.42a.4.4,0,0,0,.8,0s0-.09,0-.11L8.6,9.79A.4.4,0,0,0,8.16,9.43Z"/></g></g></svg>