<svg xmlns="http://www.w3.org/2000/svg" viewBox="0 0 48 34.14"><g id="Layer_2" data-name="Layer 2"><g id="Layer_1-2" data-name="Layer 1"><path d="M5.51,25.67a.75.75,0,0,0-1.28.78l.28.46a.5.5,0,0,1-.16.69,2,2,0,0,0-.9,1.24,2,2,0,0,0,.26,1.56l.44.62a.74.74,0,0,0,1,.19.75.75,0,0,0,.2-1v0L5,29.58a.49.49,0,0,1,.16-.69h0a2,2,0,0,0,.67-2.75h0Z"/><path d="M36.13,23.67a2,2,0,0,0-1.46-.46.5.5,0,0,1-.55-.45h0l0-.54a.75.75,0,0,0-1.5.14l0,.53a2,2,0,0,0,2.18,1.82.51.51,0,0,1,.55.4l0,.76a.74.74,0,0,0,.75.73h0a.76.76,0,0,0,.73-.77l0-.8A2,2,0,0,0,36.13,23.67Z"/><path d="M21.29,29.67l-1.11.1A2,2,0,0,0,18.38,32h0a.5.5,0,0,1-.45.55l-1.35.13a.75.75,0,1,0,.07,1.5h.07L18.07,34a2,2,0,0,0,1.8-2.19.5.5,0,0,1,.45-.55h0l1.11-.1a.75.75,0,0,0-.15-1.5Z"/><path d="M16.11,19.45,16,18.92a.75.75,0,0,0-1.48.25l.09.53a.51.51,0,0,1-.41.59,2,2,0,0,0-1.63,2.33v0l.18.73a.75.75,0,1,0,1.46-.33h0l-.17-.69a.5.5,0,0,1,.4-.58h0A2,2,0,0,0,16.11,19.45Z"/><path d="M41.81,26.57a.74.74,0,0,0-.68.81l.12,1.35a.5.5,0,0,1-.45.55h0A2,2,0,0,0,39,31.46l.1,1.11a.76.76,0,0,0,.75.68h.07a.75.75,0,0,0,.68-.81h0l-.1-1.12a.47.47,0,0,1,.11-.36.48.48,0,0,1,.34-.18,2,2,0,0,0,1.82-2.18l-.12-1.35A.75.75,0,0,0,41.81,26.57Z"/><path d="M48,.75a.75.75,0,0,0-1.5,0h0a8.35,8.35,0,0,1-3,6.05.42.42,0,0,0-.12.08A24.45,24.45,0,0,1,32.25,12l0,0c-.63.13-1.27.25-1.93.35h0a39.36,39.36,0,0,1-4.6.45h-.09c-1,0-2.05,0-3.08,0h-.06a39.7,39.7,0,0,1-4.62-.45h0c-.67-.1-1.33-.22-2-.36h0A24.37,24.37,0,0,1,4.66,6.87l-.12-.08a8.29,8.29,0,0,1-3-6A.76.76,0,0,0,.75,0,.76.76,0,0,0,0,.75H0a9.66,9.66,0,0,0,3.41,7l.17,5.36.26,8.28a.76.76,0,0,0,.43.65.74.74,0,0,0,.78-.09l6.53-5.11,2.19-1.71a.75.75,0,0,0,.15-1,.76.76,0,0,0-1.05-.16l0,0-1.16.9-.22-1.6a.75.75,0,0,0-.85-.63.71.71,0,0,0-.34.13l-2.5,1.84-.23-3.11a.75.75,0,0,0-.8-.7.77.77,0,0,0-.35.12L5,11.72,5,9.05a27.87,27.87,0,0,0,10.49,4.4h.05l1.68.32,2.42,4.78L23.35,26a.74.74,0,0,0,1.33,0l3.74-7.39,2.43-4.8,1.36-.25,4.21,3.29,0,0,.09.05.17.06.05,0H37l.15,0h0l0,0a.76.76,0,0,0,.23-.17l0-.06a.81.81,0,0,0,.14-.33l.23-1.65,2.59,1.9a.75.75,0,0,0,1.05-.17.77.77,0,0,0,.14-.39l.23-3.21,1,.66-.2,6.37L39,16.88A.76.76,0,1,0,38,18.07L43,21.92a.75.75,0,0,0,1-.12.79.79,0,0,0,.16-.44l.26-8.28.17-5.36A9.64,9.64,0,0,0,48,.75ZM6.8,16.64a.74.74,0,0,0,.76-.07l2.59-1.9.17,1.22-5,3.94-.2-6.36,1-.66L6.37,16A.73.73,0,0,0,6.8,16.64Zm34.07-5.81a.74.74,0,0,0-.41.62l-.23,3.11-2.5-1.83a.74.74,0,0,0-1,.16.79.79,0,0,0-.14.34l-.22,1.6-2.23-1.74a26.68,26.68,0,0,0,9-4L43,11.72l-1.36-.85A.75.75,0,0,0,40.87,10.83ZM24,24l-2.88-5.69.67-1L23.34,20a.76.76,0,0,0,.66.39h0a.73.73,0,0,0,.65-.38l1.57-2.81.67,1ZM29,14l-1.36,2.68-.87-1.35a.72.72,0,0,0-.65-.34.71.71,0,0,0-.63.38L24,18.13l-1.5-2.72a.74.74,0,0,0-.63-.39h0a.7.7,0,0,0-.62.34l-.88,1.35L19,14h.07q1.2.14,2.43.21h0c.82.05,1.66.08,2.51.08s1.69,0,2.52-.08h.06c.8-.05,1.6-.12,2.38-.21Z"/></g></g></svg>