<svg xmlns="http://www.w3.org/2000/svg" viewBox="0 0 88.47 93.87"><g id="Layer_2" data-name="Layer 2"><g id="Layer_1-2" data-name="Layer 1"><path d="M41.15,73.85,30.5,90a8.55,8.55,0,0,1-5.45,3.67,7.92,7.92,0,0,1-1.61.16A7.78,7.78,0,0,1,19,92.52a8,8,0,0,1-3.46-5.43,8.21,8.21,0,0,1,1.57-6.24l14.65-19A2,2,0,1,1,35,64.3h0L20.3,83.3a4.14,4.14,0,0,0,.79,5.78l.21.14a3.92,3.92,0,0,0,3,.58,4.48,4.48,0,0,0,2.89-1.94L37.8,71.65a2,2,0,0,1,3.34,2.2ZM83.23,2.17C79.5-.49,74.43-.69,69,1.62A34.13,34.13,0,0,0,55,13.36c-5.06,7.1-7.43,15.23-6.33,21.75a9.17,9.17,0,0,1-.39,4.5,2,2,0,0,0,3.79,1.29h0a13.32,13.32,0,0,0,.55-6.45c-.91-5.42,1.25-12.61,5.64-18.77A30.05,30.05,0,0,1,70.5,5.31c4.14-1.74,7.82-1.7,10.38.13s3.81,5.29,3.51,9.77a29.89,29.89,0,0,1-5.81,14.94c-4.35,6.17-10.49,10.56-15.91,11.46a13.47,13.47,0,0,0-5.82,2.54,16.12,16.12,0,0,0-1.33,1.15,2,2,0,0,0,2.79,2.86c.32-.29.65-.57,1-.83a9.35,9.35,0,0,1,4-1.78c6.53-1.09,13.44-6,18.51-13.08a34,34,0,0,0,6.55-17C88.78,9.56,86.94,4.83,83.23,2.17ZM39.58,38.54a.55.55,0,0,1,0-.53,12.42,12.42,0,0,0-1.24-12.22L20.48.87a2,2,0,1,0-3.3,2.26l.05.07L35.07,28.12a8.4,8.4,0,0,1,.84,8.27,4.52,4.52,0,0,0,.51,4.6l33,42.68a3.85,3.85,0,1,1-6,4.8,3.71,3.71,0,0,1-.23-.32L33.23,43.25a4.56,4.56,0,0,0-4.2-2,8.37,8.37,0,0,1-7.57-3.44L3.65,13a2,2,0,0,0-3.3,2.26l.05.07L18.23,40.19a12.39,12.39,0,0,0,11.2,5.09.55.55,0,0,1,.5.19l29.9,44.89A7.8,7.8,0,0,0,65,93.74a7.61,7.61,0,0,0,1.43.13,7.85,7.85,0,0,0,6.19-12.65ZM26.8,33.16A2,2,0,0,0,28.44,30L12.14,6.73A2,2,0,0,0,8.86,9L25.16,32.3A2,2,0,0,0,26.8,33.16Z"/></g></g></svg>