<svg xmlns="http://www.w3.org/2000/svg" viewBox="0 0 67 73.41"><g id="Layer_2" data-name="Layer 2"><g id="Layer_1-2" data-name="Layer 1"><path d="M66,16.91H46.67a21.12,21.12,0,0,0,4.22-2.09A8.14,8.14,0,0,0,46.23,0a8.05,8.05,0,0,0-4.64,1.46A29.35,29.35,0,0,0,33.5,11.6,29.35,29.35,0,0,0,25.41,1.46,8.06,8.06,0,0,0,20.76,0a8.14,8.14,0,0,0-8,9.58,8.09,8.09,0,0,0,3.37,5.24,20.72,20.72,0,0,0,4.21,2.09H1a1,1,0,0,0-1,1v15a1,1,0,0,0,1,1H3.75v38.5a1,1,0,0,0,1,1h57.5a1,1,0,0,0,1-1V33.91H66a1,1,0,0,0,1-1v-15A1,1,0,0,0,66,16.91ZM17.25,13.18a6.12,6.12,0,0,1-1.53-8.54A6.14,6.14,0,0,1,24.27,3.1c3.29,2.3,9.49,10.6,7.86,13-.39.56-1.39.86-2.82.86A27.42,27.42,0,0,1,17.25,13.18ZM32.5,71.41H5.75V33.91H32.5Zm0-39.5H2v-13H32.5ZM42.73,3.1a6.14,6.14,0,0,1,7,10.08,27.46,27.46,0,0,1-12.06,3.73c-1.43,0-2.43-.3-2.82-.86C33.24,13.7,39.43,5.39,42.73,3.1ZM61.25,71.41H34.5V33.91H61.25ZM65,31.91H34.5v-13H65Z"/></g></g></svg>