<svg xmlns="http://www.w3.org/2000/svg" viewBox="0 0 65.18 83.99"><g id="Layer_2" data-name="Layer 2"><g id="Layer_1-2" data-name="Layer 1"><path d="M65.18,18.78a.7.7,0,0,0-1.4,0,31.19,31.19,0,0,1-62.38,0,.7.7,0,0,0-.7-.7.7.7,0,0,0-.7.7C0,37.3,8.8,53.14,21.14,59.32L18.5,62.86a.66.66,0,0,0-.13.54.73.73,0,0,0,.31.47,19.93,19.93,0,0,0,2.66,1.29L18.49,69a.69.69,0,0,0-.12.54.68.68,0,0,0,.31.46,27.61,27.61,0,0,0,11.73,3.38,5.53,5.53,0,1,0,4.35,0,31.93,31.93,0,0,0,12-3.33A.69.69,0,0,0,47,68.94l-3.09-3.79c.94-.36,1.89-.76,2.86-1.24a.69.69,0,0,0,.37-.48.66.66,0,0,0-.14-.59L44.07,59.3C56.39,53.11,65.18,37.29,65.18,18.78ZM28.45,55.57a4.14,4.14,0,1,1,4.14,4.14A4.15,4.15,0,0,1,28.45,55.57ZM3.23,32.92a32.65,32.65,0,0,0,26,18.27,5.52,5.52,0,0,0,.95,9.35C17.71,59.25,7.3,48.11,3.23,32.92Zm33.5,45.52a4.14,4.14,0,1,1-4.14-4.14A4.14,4.14,0,0,1,36.73,78.44Zm8.58-9.3a28.75,28.75,0,0,1-25.22,0l2.61-3.48a30,30,0,0,0,9.84,1.65,31.06,31.06,0,0,0,9.94-1.67Zm0-6.11a28.8,28.8,0,0,1-25.22,0l2.35-3.14a24.95,24.95,0,0,0,20.33,0ZM35,60.54A5.52,5.52,0,0,0,36,51.19,32.65,32.65,0,0,0,62,32.92C57.88,48.11,47.46,59.25,35,60.54Z"/><path d="M32.59,54a.7.7,0,0,0,0-1.4,3,3,0,0,0,0,5.95.7.7,0,1,0,0-1.4,1.58,1.58,0,0,1,0-3.15Z"/><path d="M29.62,78.44a3,3,0,0,0,3,3,.7.7,0,1,0,0-1.4,1.58,1.58,0,0,1,0-3.15.7.7,0,0,0,0-1.4A3,3,0,0,0,29.62,78.44Z"/><path d="M21.89,19.82V18a.7.7,0,0,0-1.4,0v1.78a.7.7,0,0,0,1.4,0Z"/><path d="M17.73,17.19a.71.71,0,0,0-.92.37l-.7,1.65a.69.69,0,0,0,.38.91.66.66,0,0,0,.27.06.69.69,0,0,0,.64-.43l.7-1.64A.71.71,0,0,0,17.73,17.19Z"/><path d="M25.18,19.46a.7.7,0,0,0,.64.42.62.62,0,0,0,.27-.05.7.7,0,0,0,.38-.92l-.7-1.64a.7.7,0,1,0-1.29.54Z"/><path d="M21.19,37.79a.7.7,0,1,0,0-1.4,2.32,2.32,0,0,0,0,4.64.7.7,0,0,0,0-1.4.92.92,0,0,1,0-1.84Z"/><path d="M10.85,32.38a.71.71,0,0,0,.31.46,19.07,19.07,0,0,0,7.72,2.43,4.15,4.15,0,1,0,4.59,0,23.84,23.84,0,0,0,7.89-2.37.71.71,0,0,0,.38-.48.69.69,0,0,0-.14-.59l-2-2.49c.59-.24,1.19-.49,1.8-.79a.72.72,0,0,0,.37-.48.69.69,0,0,0-.14-.59l-2.08-2.54c.61-.25,1.22-.51,1.85-.82A.7.7,0,0,0,31.6,23l-2-2.49c.6-.24,1.2-.5,1.8-.79a.69.69,0,0,0,.37-.48.66.66,0,0,0-.14-.59l-2.45-3a.69.69,0,0,0-.54-.26H23a1.91,1.91,0,0,0,.16-.76V11.77A1.9,1.9,0,0,0,22,10V5.59a.7.7,0,0,0-.7-.7h-.14a1.75,1.75,0,0,1,0-3.49.7.7,0,0,0,0-1.4,3.14,3.14,0,0,0-.56,6.23V10a1.9,1.9,0,0,0-1.2,1.76v2.89a1.91,1.91,0,0,0,.16.76H13.79a.71.71,0,0,0-.57.28L11,18.7a.72.72,0,0,0-.12.55.65.65,0,0,0,.31.46,12.08,12.08,0,0,0,1.68.85L11,23.06a.72.72,0,0,0,.19,1,14,14,0,0,0,1.71.87L11,27.48a.72.72,0,0,0-.12.55.65.65,0,0,0,.31.46,13.47,13.47,0,0,0,1.67.86L11,31.84A.69.69,0,0,0,10.85,32.38Zm10-20.61a.5.5,0,1,1,1,0v2.89a.5.5,0,0,1-1,0Zm.39,29.69a2.75,2.75,0,1,1,2.75-2.75A2.75,2.75,0,0,1,21.19,41.46ZM14.13,16.81H28.27L30,18.87a21.51,21.51,0,0,1-8.84,2,19.47,19.47,0,0,1-8.53-1.94Zm.07,4.27c.45.16,1,.31,1.5.45l-.58,1.37a.71.71,0,0,0,.38.92.81.81,0,0,0,.27.05.69.69,0,0,0,.64-.43l.68-1.59a21.5,21.5,0,0,0,3.4.36v1.56a.7.7,0,0,0,1.4,0V22.2a20.91,20.91,0,0,0,3.68-.45l.59,1.4a.73.73,0,0,0,.65.43.66.66,0,0,0,.27-.06.7.7,0,0,0,.37-.92L27,21.42c.41-.11.82-.23,1.22-.37l1.77,2.17a20.33,20.33,0,0,1-17.36,0Zm0,4.38a20.94,20.94,0,0,0,2.69.73.58.58,0,0,0-.11.15L16.11,28a.69.69,0,0,0,.38.91.66.66,0,0,0,.27.06.69.69,0,0,0,.64-.43l.7-1.64a.72.72,0,0,0,0-.5,20.24,20.24,0,0,0,2.43.2.59.59,0,0,0-.05.23V28.6a.7.7,0,0,0,1.4,0V26.82a.86.86,0,0,0,0-.24,22,22,0,0,0,2.58-.25.75.75,0,0,0,.05.26l.7,1.65a.7.7,0,0,0,.64.42.62.62,0,0,0,.27-.05.7.7,0,0,0,.38-.92l-.69-1.61a22.54,22.54,0,0,0,2.35-.66L30,27.65a20.36,20.36,0,0,1-17.36,0Zm0,4.41c.46.16,1,.31,1.51.46l-.57,1.35a.69.69,0,0,0,.37.92.86.86,0,0,0,.27,0,.7.7,0,0,0,.64-.42l.67-1.58a20.62,20.62,0,0,0,3.41.36v1.54a.7.7,0,0,0,1.4,0V31a20.78,20.78,0,0,0,3.69-.46l.58,1.39a.73.73,0,0,0,.65.43.66.66,0,0,0,.27-.06.7.7,0,0,0,.38-.92L27,30.21c.4-.11.81-.24,1.22-.37L30,32a20.32,20.32,0,0,1-17.36,0Z"/><path d="M44.69,19.82V18a.7.7,0,0,0-1.4,0v1.78a.7.7,0,0,0,1.4,0Z"/><path d="M47.78,19.75a.69.69,0,0,0,.64.43.66.66,0,0,0,.27-.06.69.69,0,0,0,.37-.91l-.69-1.65a.7.7,0,0,0-1.29.55Z"/><path d="M40.33,16.89a.7.7,0,0,0-.92.38l-.7,1.64a.71.71,0,0,0,.37.92.72.72,0,0,0,.92-.37l.7-1.65A.71.71,0,0,0,40.33,16.89Z"/><path d="M44,36.39a.7.7,0,1,0,0,1.4.92.92,0,1,1,0,1.84A.7.7,0,1,0,44,41a2.32,2.32,0,0,0,0-4.64Z"/><path d="M33.44,32.4a.69.69,0,0,0,.37.48,23.62,23.62,0,0,0,7.9,2.36,4.16,4.16,0,1,0,4.58,0A18.9,18.9,0,0,0,54,32.84a.69.69,0,0,0,.32-.46.72.72,0,0,0-.13-.55l-1.86-2.49A12.55,12.55,0,0,0,54,28.49a.71.71,0,0,0,.32-.47.69.69,0,0,0-.13-.54l-1.9-2.54A13,13,0,0,0,54,24.06a.71.71,0,0,0,.31-.46.73.73,0,0,0-.13-.55l-1.86-2.49A12.83,12.83,0,0,0,54,19.71a.73.73,0,0,0,.31-.47.66.66,0,0,0-.13-.54L52,15.7a.69.69,0,0,0-.56-.28H45.62a2,2,0,0,0,.16-.76V11.77A1.9,1.9,0,0,0,44.58,10V6.23A3.14,3.14,0,0,0,44,0a.7.7,0,0,0-.7.7.7.7,0,0,0,.7.7,1.74,1.74,0,0,1,0,3.48L44,4.9l-.07,0a.71.71,0,0,0-.7.7V10A1.89,1.89,0,0,0,42,11.77v2.89a1.87,1.87,0,0,0,.16.75H36.58a.7.7,0,0,0-.54.26l-2.45,3a.73.73,0,0,0-.15.6.72.72,0,0,0,.38.47c.6.3,1.2.56,1.8.8l-2,2.49a.7.7,0,0,0-.15.59.74.74,0,0,0,.38.48c.62.31,1.24.57,1.84.81l-2.07,2.54a.7.7,0,0,0,.23,1.07c.61.3,1.21.56,1.8.8l-2,2.49A.67.67,0,0,0,33.44,32.4Zm9.94-20.63a.5.5,0,0,1,1,0v2.89a.5.5,0,0,1-1,0ZM44,41.46a2.75,2.75,0,1,1,2.75-2.75A2.76,2.76,0,0,1,44,41.46ZM36.91,16.81H51.05l1.55,2.08a19.43,19.43,0,0,1-8.53,1.94,21.48,21.48,0,0,1-8.84-2ZM37,21.05c.41.14.82.26,1.22.37l-.5,1.18a.7.7,0,0,0,.38.92.65.65,0,0,0,.27.05.7.7,0,0,0,.64-.42l.59-1.4a20.9,20.9,0,0,0,3.69.45v1.57a.7.7,0,1,0,1.4,0V22.21a21.5,21.5,0,0,0,3.4-.36l.68,1.59a.69.69,0,0,0,.64.43.66.66,0,0,0,.27-.06.69.69,0,0,0,.37-.91l-.57-1.37q.81-.21,1.5-.45l1.61,2.16a20.27,20.27,0,0,1-17.36,0Zm0,4.37a22.54,22.54,0,0,0,2.35.66l-.69,1.61a.71.71,0,0,0,.37.92.72.72,0,0,0,.92-.37l.7-1.65a.75.75,0,0,0,0-.26,22,22,0,0,0,2.58.25.86.86,0,0,0,0,.24V28.6a.7.7,0,1,0,1.4,0V26.82a.78.78,0,0,0,0-.23,20.42,20.42,0,0,0,2.43-.2.67.67,0,0,0,0,.5l.7,1.64a.69.69,0,0,0,.64.43.66.66,0,0,0,.27-.06.69.69,0,0,0,.37-.91l-.69-1.65a.58.58,0,0,0-.11-.15,22.51,22.51,0,0,0,2.68-.73l1.66,2.21a20.3,20.3,0,0,1-17.37,0Zm0,4.41c.41.14.82.27,1.22.38l-.5,1.17a.7.7,0,0,0,.38.92.65.65,0,0,0,.27.05.7.7,0,0,0,.64-.42l.59-1.39a20.66,20.66,0,0,0,3.69.46v1.54a.7.7,0,0,0,1.4,0V31a20.58,20.58,0,0,0,3.41-.37l.66,1.58a.71.71,0,0,0,.65.43.66.66,0,0,0,.27-.06.69.69,0,0,0,.37-.91l-.57-1.35c.55-.15,1.05-.3,1.51-.46L52.59,32a20.28,20.28,0,0,1-17.36,0Z"/></g></g></svg>