<svg xmlns="http://www.w3.org/2000/svg" viewBox="0 0 127.97 118.02"><g id="Layer_2" data-name="Layer 2"><g id="Layer_1-2" data-name="Layer 1"><path d="M46.7,88.09a2,2,0,0,0,.24,2.82h0a2,2,0,0,0,2.82-.23l0,0c.16-.19,3.88-4.51,9.56-.65a8.79,8.79,0,0,0,5,1.76,10.06,10.06,0,0,0,5-1.66c2.26-1.26,4.22-2.35,8.43-.35a2,2,0,0,0,2.68-.9l0,0a2,2,0,0,0-1-2.66h0c-6.11-2.89-9.61-.95-12.17.48-2.18,1.21-3.18,1.77-5.65.09C54.71,82,48.84,85.54,46.7,88.09Z"/><path d="M85.41,96.87c-.37-.2-9.16-4.75-21.38-1.48-12.24-3.27-21,1.29-21.39,1.48a2,2,0,0,0,.11,3.58,55.77,55.77,0,0,0,22.19,4.72,45.17,45.17,0,0,0,20.47-4.75,2,2,0,0,0,.85-2.7A2,2,0,0,0,85.41,96.87ZM49.64,98.78a29.38,29.38,0,0,1,13.82.61,1.94,1.94,0,0,0,1.12,0,29.22,29.22,0,0,1,14.21-.52C67.23,102.92,56.11,100.81,49.64,98.78Z"/><path d="M80.17,111a2,2,0,0,0,.1-2.83h0a2,2,0,0,0-2.83-.13l0,0c-11.84,10.9-25.66.35-26.24-.1a2,2,0,0,0-2.81.29l0,0a2,2,0,0,0,.32,2.81c.11.09,7.6,5.85,16.84,5.85A21.12,21.12,0,0,0,80.17,111Z"/><path d="M56.75,74.28a1.42,1.42,0,0,1,.79.07A2.83,2.83,0,0,1,58.74,76a2,2,0,0,0,2.57,1.17h0a2,2,0,0,0,1.18-2.57h0a6.45,6.45,0,0,0-3.35-3.85,5.44,5.44,0,0,0-3.91-.14,2,2,0,0,0-1.15,2.59h0a2,2,0,0,0,2.61,1.1Z"/><path d="M74.94,74.28a1.42,1.42,0,0,0-.79.07A2.84,2.84,0,0,0,72.94,76a2,2,0,0,1-2.57,1.17h0a2,2,0,0,1-1.19-2.57h0a6.45,6.45,0,0,1,3.35-3.85,5.44,5.44,0,0,1,3.91-.14,2,2,0,0,1,1.14,2.59h0a2,2,0,0,1-2.61,1.09Z"/><path d="M1.84,32.41h.85a9.49,9.49,0,0,0,7.77-3.53l.32.51c-.35,1.07-1.7,3.84-6,3.57a2,2,0,1,0-.25,4h.85a9.39,9.39,0,0,0,8.25-4.19c.33.32.68.64,1,.95-.43,1.06-1.81,3-6.13,3.14a2,2,0,1,0,.07,4h.07c5.3-.19,8.07-2.57,9.34-4.81.54.31,1.12.6,1.72.88-.59,1.13-2.06,2.73-5.67,3.1a2,2,0,1,0,.21,4h.21c5.32-.55,8-3.29,9-5.66.54.16,1.1.31,1.67.45a2.26,2.26,0,0,1-.3.87c-.68,1.16-2.46,2.15-5,2.77a2,2,0,0,0-1.49,2.41v0a2,2,0,0,0,2,1.52,2.05,2.05,0,0,0,.49-.06c3.72-.92,6.25-2.48,7.53-4.64a6.16,6.16,0,0,0,.78-2.16q1,.14,2.13.21c0,1.18-.77,3.31-5.21,4.86a2,2,0,0,0-1.29,2.52.14.14,0,0,0,0,.06,2,2,0,0,0,2.54,1.24l.05,0c3.63-1.28,6-3.16,7.2-5.6a7.19,7.19,0,0,0,.69-2.92,14.87,14.87,0,0,0,2.16-.24c2.67-.4,5.44-.82,9,2.09a2,2,0,0,0,2.82-.21l0,0A2,2,0,0,0,49,38.69h0c-4.91-4.08-9.11-3.44-12.17-3a13.87,13.87,0,0,1-2.13.23c-22.33-.16-23.08-15.06-23.1-15.68a2,2,0,1,0-4,.09,16.37,16.37,0,0,0,.74,3.86,1.43,1.43,0,0,0-.09.27c-.09.44-1.07,4.26-6.15,3.95a2,2,0,1,0-.25,4Z"/><path d="M93.15,35.93A15.08,15.08,0,0,1,91,35.7c-3.06-.46-7.25-1.1-12.17,3a2,2,0,0,0-.25,2.82h0a2,2,0,0,0,2.81.28l0,0c3.51-2.91,6.27-2.5,9-2.09.74.11,1.46.2,2.16.24a7.19,7.19,0,0,0,.69,2.92c1.15,2.44,3.57,4.33,7.2,5.6A2,2,0,0,0,103,47.27l0-.05a2,2,0,0,0-1.22-2.55h0C97.37,43.1,96.63,41,96.6,39.8q1.09-.07,2.13-.21a6,6,0,0,0,.78,2.16c1.27,2.17,3.81,3.73,7.53,4.64a2,2,0,1,0,1-3.88h0c-4-1-5.22-2.6-5.31-3.63q.87-.21,1.68-.45c1.1,2.37,3.73,5.11,9,5.66h.21a2,2,0,0,0,.21-4c-3.61-.37-5.07-2-5.67-3.1.6-.28,1.18-.57,1.72-.87,1.26,2.24,4,4.62,9.33,4.81h.07a2,2,0,0,0,.07-4c-4.32-.15-5.7-2.08-6.13-3.14a9.16,9.16,0,0,0,1-1A9.39,9.39,0,0,0,122.55,37h.85a2,2,0,0,0,1.9-2.09v0A2,2,0,0,0,123.19,33h0c-4.35.27-5.69-2.49-6-3.57l.32-.51a9.45,9.45,0,0,0,7.77,3.52h.85a2,2,0,0,0-.25-4c-5.07.31-6-3.5-6.15-4a1.31,1.31,0,0,0-.09-.28,16.29,16.29,0,0,0,.74-3.85,2,2,0,0,0-4-.09C116.23,20.88,115.63,35.76,93.15,35.93Z"/><path d="M1.94,113.72a2,2,0,0,0,1,1.15l6,2.93a2,2,0,0,0,2.69-.88l0,0,12.89-26a1.61,1.61,0,0,0,.31,0,2,2,0,0,0,1.82-1.12l7.27-14.5a2,2,0,0,0,.15-1.3l6.54-5a5.86,5.86,0,0,0-.16-9.46,34.58,34.58,0,0,0-4.92-2.88,34.72,34.72,0,0,0-5.32-2.08,6,6,0,0,0-5.3.94,5.77,5.77,0,0,0-2.37,4.73v8.17a2,2,0,0,0-.88.88L14.51,83.88a2,2,0,0,0,.43,2.33l-12.89,26A2,2,0,0,0,1.94,113.72Zm25.42-55a1.92,1.92,0,0,1,1.72-.3,30.2,30.2,0,0,1,4.67,1.84,30.22,30.22,0,0,1,4.33,2.53,1.9,1.9,0,0,1,.86,1.55,1.87,1.87,0,0,1-.74,1.51l-7.41,5.62-4.09-2V60.24a1.87,1.87,0,0,1,.67-1.49Zm-2.9,14.14,5,2.41-4.91,9.9-5-2.41Zm-5.92,15.2,2.4,1.17-12,24.09-2.41-1.17Z"/><path d="M14.78,13.66a2,2,0,0,0,.88,3.91h0a18,18,0,0,1,3.94-.29,5.87,5.87,0,0,1,.66-4A22.12,22.12,0,0,0,14.78,13.66Z"/><path d="M42.09,29.29a2,2,0,0,0,2.81.31l0,0a2,2,0,0,0,.28-2.81h0A38.3,38.3,0,0,0,31.67,16.09v.12a5.94,5.94,0,0,1-1.3,3.71A34.66,34.66,0,0,1,42.09,29.29Z"/><ellipse cx="25.6" cy="16.2" rx="2.03" ry="2"/><path d="M22.8,6.93c8.19,4,25.88,14.83,26.06,14.93a2,2,0,0,0,2.76-.61l0,0a2,2,0,0,0-.7-2.74h0c-.73-.45-18-11-26.37-15.11A33.27,33.27,0,0,0,12.94.11a5.85,5.85,0,0,1-.09,4A29.26,29.26,0,0,1,22.8,6.93Z"/><ellipse cx="7.15" cy="2" rx="2.03" ry="2"/><path d="M82.66,26.75a2,2,0,0,0,.27,2.82h0a2,2,0,0,0,2.82-.24l0,0a35,35,0,0,1,10.94-9,5.92,5.92,0,0,1-1.36-3.78h0A38.62,38.62,0,0,0,82.66,26.75Z"/><path d="M112.19,17.56a2,2,0,0,0,2.41-1.47v0a2,2,0,0,0-1.5-2.4h0a23.53,23.53,0,0,0-6.49-.3,5.78,5.78,0,0,1,.86,3.95A18.75,18.75,0,0,1,112.19,17.56Z"/><ellipse cx="101.45" cy="16.52" rx="2.03" ry="2"/><path d="M77.94,22.17a2,2,0,0,0,1.06-.3c.18-.11,17.86-10.89,26.05-14.93a29.34,29.34,0,0,1,10-2.8,5.85,5.85,0,0,1-.06-4,33.26,33.26,0,0,0-11.72,3.24C94.94,7.48,77.63,18,76.94,18.46a2,2,0,0,0-.67,2.75h0A2,2,0,0,0,77.94,22.17Z"/><ellipse cx="120.74" cy="2.04" rx="2.03" ry="2"/></g></g></svg>