<svg xmlns="http://www.w3.org/2000/svg" viewBox="0 0 60.02 60.01"><g id="Layer_2" data-name="Layer 2"><g id="Layer_1-2" data-name="Layer 1"><path d="M31.29,25.69a1,1,0,0,0-1.1.88h0L30,28.11a1,1,0,0,1-.66.83L22.7,31.26a1,1,0,0,0-.67,1v8.93a1,1,0,0,0,.29.71l5.42,5.44A.92.92,0,0,1,28,48v9a1,1,0,0,1-2,0V48.83a1,1,0,0,0-.29-.71l-5.79-5.83a1,1,0,0,0-.71-.29H17a1,1,0,0,0-1,1v8a1,1,0,0,1-.45.83l-9,6a1,1,0,1,1-1.1-1.66l8.1-5.41a1,1,0,0,0,.45-.83V43a1,1,0,0,0-2,0v6.39L4.36,54.5A3,3,0,0,0,6,60a3,3,0,0,0,1.66-.5l9-6A3,3,0,0,0,18,51V44h.79L24,49.24V57a3,3,0,0,0,6,0V48a3,3,0,0,0-.87-2.12L24,40.73V32.92l6-2.09a3,3,0,0,0,2-2.5l.17-1.53a1,1,0,0,0-.87-1.11Z"/><path d="M10.9,38,12,37.1V39a1,1,0,0,0,2,0V35a1,1,0,0,0-1.57-.79L9.71,36.39a1,1,0,0,1-.77.21l-6-.91H2.78A1,1,0,0,1,2,34.58a1.06,1.06,0,0,1,.4-.65,1,1,0,0,1,.74-.19l5.15.78a1,1,0,0,0,.77-.2l5.14-4.09A3.31,3.31,0,0,1,15,30h1a1,1,0,0,0,1-1v-.42a1,1,0,0,0-.6-.92,4,4,0,1,1,5.27-2.07,4,4,0,0,1-2.07,2.07,1,1,0,0,0-.6.92V29a1,1,0,0,0,1,1h.62a1,1,0,0,0,.69-.28,1.16,1.16,0,0,1,.36-.23l5.81-2a1,1,0,0,0,.67-.83L29,18.89a1,1,0,0,1,1.1-.88,1,1,0,0,0,1.1-.89h0a1,1,0,0,0-.88-1.1A3,3,0,0,0,27,18.66h0l-.79,7.12-2.93,1a6,6,0,1,0-9.52,1.45l-.49.19-.22.13-4.9,3.9-4.72-.71a3,3,0,0,0-1.38,5.81l.48.12,6,.91A3,3,0,0,0,10.9,38Z"/><path d="M59,8.71A3,3,0,0,0,56.52,8,3.1,3.1,0,0,0,54,11.11V24H51.49a6,6,0,1,0-9.77-1.14l-2.93-1-.78-7A3.08,3.08,0,0,0,35,12h0a3.05,3.05,0,0,0-3,3.33l1,9a3,3,0,0,0,2,2.5l6,2.09v7.81l-5.13,5.15A3,3,0,0,0,35,44v8.89A3.1,3.1,0,0,0,37.52,56,3,3,0,0,0,41,53.54,2.46,2.46,0,0,0,41,53V45.24L46.23,40H47V56.89A3.1,3.1,0,0,0,49.52,60H50a3,3,0,0,0,3-3V33a1,1,0,0,0-2,0V57a1,1,0,0,1-1,1,.62.62,0,0,1-.19,0A1.09,1.09,0,0,1,49,56.9V39a1,1,0,0,0-1-1H45.81a1,1,0,0,0-.71.29l-5.79,5.83a1,1,0,0,0-.29.71V53a1,1,0,0,1-1,1,.62.62,0,0,1-.19,0A1.09,1.09,0,0,1,37,52.9V44a1,1,0,0,1,.29-.71l5.42-5.44a1,1,0,0,0,.29-.71V28.21a1,1,0,0,0-.67-.95l-6.66-2.32a1,1,0,0,1-.66-.83l-1-9a1,1,0,0,1,.24-.77A1,1,0,0,1,35,14a1.11,1.11,0,0,1,1,1l.84,7.64a1,1,0,0,0,.67.83l5.81,2a1,1,0,0,1,.36.23,1,1,0,0,0,.69.28H45a1,1,0,0,0,1-1v-.42a1,1,0,0,0-.6-.92,4,4,0,1,1,5.27-2.07,4,4,0,0,1-2.07,2.07,1,1,0,0,0-.6.92V25a1,1,0,0,0,1,1h5a2,2,0,0,0,2-2V11.11a1.11,1.11,0,0,1,.82-1.1,1,1,0,0,1,.83.23A1,1,0,0,1,58,11V24a4,4,0,0,1-4,4H52a1,1,0,0,0,0,2h2a6,6,0,0,0,6-6V11A3,3,0,0,0,59,8.71Z"/><path d="M3,12A3,3,0,0,0,6,9V6h6V8.18A3,3,0,1,0,13.85,12,2.72,2.72,0,0,0,14,11V1a1,1,0,0,0-1-1H5A1,1,0,0,0,4,1V6.18a3,3,0,0,0-2,5.64A3.08,3.08,0,0,0,3,12Zm8,0a1,1,0,1,1,1-1A1,1,0,0,1,11,12ZM6,2h6V4H6ZM3,8A1,1,0,1,1,2,9,1,1,0,0,1,3,8Z"/><path d="M39.28,10.88a3,3,0,0,0,1.61.48A3.11,3.11,0,0,0,43.43,10h0l2.68-4.22,4.22,2.69a1.06,1.06,0,0,0,.54.16,1,1,0,0,0,.84-.46l2.15-3.38A1,1,0,0,0,54,4a1,1,0,0,0-.44-.63L48.5.16a1,1,0,0,0-1.38.3L45,3.83,43.26,6.52a2.75,2.75,0,0,0-.75-.69,3,3,0,0,0-3.23,5.05Zm9-8.5,3.37,2.15L50.56,6.22,47.19,4.07ZM40,7.82a1,1,0,0,1,1.39-.31.94.94,0,0,1,.43.63,1,1,0,0,1-.13.75h0a1,1,0,0,1-1.38.31h0A1,1,0,0,1,40,7.82Z"/><path d="M20,9.33a3,3,0,0,0,2.92,2.36,3.5,3.5,0,0,0,.65-.07,3,3,0,0,0,1.88-1.31h0L28.7,5.25A1,1,0,1,0,27,4.17L25.3,6.85a2.71,2.71,0,0,0-.74-.69,3,3,0,0,0-4.14.91A3,3,0,0,0,20,9.33ZM22.1,8.15a1.05,1.05,0,0,1,.63-.44H23a1,1,0,0,1,1,1,1.09,1.09,0,0,1-.16.52h0a1,1,0,0,1-.63.44A1,1,0,0,1,22,8.92a1,1,0,0,1,.13-.75Z"/><path d="M34,8a1,1,0,0,0,1-1V3a1,1,0,0,0-2,0V7A1,1,0,0,0,34,8Z"/><path d="M3,20v3a1,1,0,0,0,2,0V20a1,1,0,1,0-2,0Z"/><circle cx="24.02" cy="16" r="1"/><circle cx="19.02" cy="2" r="1"/></g></g></svg>