<svg xmlns="http://www.w3.org/2000/svg" viewBox="0 0 60 45.54"><g id="Layer_2" data-name="Layer 2"><g id="Layer_1-2" data-name="Layer 1"><path d="M55.3,7.23H48.73V7.09L45.32.58a1.09,1.09,0,0,0-1-.58h-15a1.12,1.12,0,0,0-1,.58L25,7.09v.14H4.7A4.69,4.69,0,0,0,0,11.93H0V40.84a4.69,4.69,0,0,0,4.7,4.7H55.3a4.69,4.69,0,0,0,4.7-4.7h0V11.93a4.69,4.69,0,0,0-4.7-4.7ZM30,2.17H43.69L46.3,7.23H27.43ZM2.17,40.84V11.93A2.53,2.53,0,0,1,4.7,9.4H13v34H4.7a2.53,2.53,0,0,1-2.53-2.53Zm55.66,0a2.53,2.53,0,0,1-2.53,2.53H15.18v-34H55.3a2.53,2.53,0,0,1,2.53,2.53Z"/><path d="M36.87,13A13.74,13.74,0,1,0,50.6,26.77,13.74,13.74,0,0,0,36.87,13Zm0,25.3A11.57,11.57,0,1,1,48.43,26.73v0A11.57,11.57,0,0,1,36.87,38.31Z"/><path d="M36.87,18.77a8,8,0,1,0,8,8A8,8,0,0,0,36.87,18.77Zm0,13.74a5.79,5.79,0,1,1,5.78-5.8v.06a5.78,5.78,0,0,1-5.78,5.76Z"/><path d="M4.7,3.61h6.5a1.09,1.09,0,0,0,.21-2.17.74.74,0,0,0-.21,0H4.7a1.09,1.09,0,1,0-.21,2.17A.74.74,0,0,0,4.7,3.61Z"/></g></g></svg>